<svg xmlns="http://www.w3.org/2000/svg" width="48" height="48" id="pool">
  <path d="M24 0C10.751 0 0 10.751 0 24s10.751 24 24 24 24-10.751 24-24S37.249 0 24 0zm0 1c12.708 0 23 10.292 23 23 0 12.709-10.292 23-23 23S1 36.709 1 24C1 11.292 11.292 1 24 1zm-8.01 14.965a2.994 2.994 0 0 0-2.99 2.99v1.072h-3v1h7.98v11.008h1v-2.07h7v2.07h1v-3h1.155a.499.499 0 1 0 0-1H26.98v-3h1.524a.499.499 0 1 0 0-1H26.98v-3.008H38v-1H26.98v-1.072a2.994 2.994 0 0 0-2.99-2.99 2.994 2.994 0 0 0-2.99 2.99v1.072h-2.02v-1.072a2.994 2.994 0 0 0-2.99-2.99zm0 1c1.111 0 1.99.878 1.99 1.99v1.072H14v-1.072c0-1.112.88-1.99 1.99-1.99zm8 0c1.111 0 1.99.878 1.99 1.99v1.072H22v-1.072c0-1.112.88-1.99 1.99-1.99zm-5.01 4.062h7v1.938h-7v-1.938zm-5.482 1.008a.499.499 0 1 0 0 1h1.635a.499.499 0 1 0 0-1h-1.635zm3.004 0a.5.5 0 1 0 0 1 .5.5 0 0 0 0-1zm11.996 0a.499.499 0 1 0 0 1h1.635a.499.499 0 1 0 0-1h-1.635zm3.004 0a.5.5 0 1 0 0 1 .5.5 0 0 0 0-1zm2.994 0a.499.499 0 1 0 0 1h1.633a.499.499 0 1 0 0-1h-1.633zm3.004 0a.5.5 0 1 0 0 1 .5.5 0 0 0 0-1zm-18.52 1.93h7v2h-7v-2zm-8.48.07a.5.5 0 1 0 0 1 .5.5 0 0 0 0-1zm1.37 0a.499.499 0 1 0 0 1h1.634a.499.499 0 1 0 0-1h-1.635zm19.628 0a.5.5 0 1 0 0 1 .5.5 0 0 0 0-1zm1.37 0a.499.499 0 1 0 0 1h1.634a.499.499 0 1 0 0-1h-1.635zm-19.37 2a.5.5 0 1 0 0 1 .5.5 0 0 0 0-1zm1.37 0a.499.499 0 1 0 0 1h1.634a.499.499 0 1 0 0-1h-1.635zm13.63 0a.5.5 0 1 0 0 1 .5.5 0 0 0 0-1zm1.37 0a.499.499 0 1 0 0 1h1.634a.499.499 0 1 0 0-1h-1.635zm4.628 0a.5.5 0 1 0 0 1 .5.5 0 0 0 0-1zm1.37 0a.499.499 0 1 0 0 1H37.5a.499.499 0 1 0 0-1h-1.635zm-16.886.93h7v2h-7v-2zm-7.48 1.07a.499.499 0 1 0 0 1h1.635a.499.499 0 1 0 0-1H11.5zm3.004 0a.5.5 0 1 0 0 1 .5.5 0 0 0 0-1zm15 0a.5.5 0 1 0 0 1 .5.5 0 0 0 0-1zm2.994 0a.499.499 0 1 0 0 1h1.635a.499.499 0 1 0 0-1h-1.635zm3.004 0a.5.5 0 1 0 0 1 .5.5 0 0 0 0-1zm-22.004 2a.5.5 0 1 0 0 1 .5.5 0 0 0 0-1zm1.37 0a.499.499 0 1 0 0 1h1.634a.499.499 0 1 0 0-1h-1.635zm13.63 0a.5.5 0 1 0 0 1 .5.5 0 0 0 0-1zm1.37 0a.499.499 0 1 0 0 1h1.634a.499.499 0 1 0 0-1h-1.635zm4.628 0a.5.5 0 1 0 0 1 .5.5 0 0 0 0-1zm1.37 0a.499.499 0 1 0 0 1H37.5a.499.499 0 1 0 0-1h-1.635z" color="#000" font-family="sans-serif" font-weight="400" overflow="visible" style="line-height:normal;text-indent:0;text-align:start;text-decoration-line:none;text-decoration-style:solid;text-decoration-color:#000;text-transform:none;block-progression:tb;isolation:auto;mix-blend-mode:normal"></path>
</svg>
